#format: frame checksums
#version: 2
#hash: MD5
#tb 0: 1/25
#media_type 0: video
#codec_id 0: h264
#dimensions 0: 352x288
#sar 0: 0/1
#stream#, dts,        pts, duration,     size, hash
0,         -1,          0,        1,    17825, 5044579ab78ce6e951508fcddbb5f2f4
0,          0,          1,        1,    15832, 7750e61f6694255d9eb2e0d57cf134b4
0,          1,          2,        1,    16050, d0e1459033dc0e4731abb2f00f7ae742
0,          2,          3,        1,    16053, d6c82cc818d1c3cb4af7366efd339d15
0,          3,          4,        1,    16119, ab6a579834972976e71219a91fc1c85f
0,          4,          5,        1,    16151, 6138ffe9144d42dc5a0e6ce4ddaf7da0
0,          5,          6,        1,    16308, 38c97bba372ea108f4c2122d600c3a30
0,          6,          7,        1,    16487, 0257e990240d0a1c4880c8ab963e6e8b
0,          7,          8,        1,    16491, 6e0fae36ce6396204bb2fdc58ca492a6
0,          8,          9,        1,    16711, 4e4dfaaf257b80e58847b9636423ca7e
0,          9,         10,        1,    16825, d545ea2a32fdd6893da9bb510417da29
0,         10,         11,        1,    17201, 9be4863c7276fba0871acd22ddc25297
0,         11,         12,        1,    17454, 4f34b9c3936148972a0dfec26146a945
0,         12,         13,        1,    17586, 5ca31338dd2355f09c2f579b40249bff
0,         13,         14,        1,    17705, 104deaf525ef4eead81fbde002dc68d8
0,         14,         15,        1,    17961, c42c10ffaa5778796f5b47a008c2195b
0,         15,         16,        1,    18199, 1ba707edda457de98c4735027a337a1a
0,         16,         17,        1,    18343, 4d6a6076182da789e43c5a330a9f8472
0,         17,         18,        1,    18687, 1f0715f6004c6defb35655741562f495
0,         18,         19,        1,    18864, 84c31da79d894c325162990520c266ad
0,         19,         20,        1,    18988, 6c46fec4effa318237fcb1578a82cfed
0,         20,         21,        1,    19315, b932c927c7240889f3c24868206b47c2
0,         21,         22,        1,    19482, fefd839b3f4ffa398f8b2148cbe282f5
0,         22,         23,        1,    19799, 51637931f6fc3657a7689f2d22cf6e69
0,         23,         24,        1,    20001, 6f333084e856a25da88d148079a6ab61
0,         24,         25,        1,    20202, eb0e0f7897765289e3e59f2121bc6df2
0,         25,         26,        1,    20383, 9b5bb3998d72ed4c2c8a2f09163646eb
0,         26,         27,        1,    20486, a3415d8a56b7c9494221e57f34662767
0,         27,         28,        1,    20640, 3409b1d9e6c6734e08d3dd7b93e2e8be
0,         28,         29,        1,    20821, 32156e70e35618dc9e4dc83b225615b1
0,         29,         30,        1,    20961, 64914e272c2c98d0fb29d37c6571aeb3
0,         30,         31,        1,    21087, 28664afede2083598c0769d959db9bd2
0,         31,         32,        1,    21287, 100112087d61125a3fe6bf4830902d4e
0,         32,         33,        1,    21462, 98bedf6fbc76439086ddaeba4cc8fb1a
0,         33,         34,        1,    21603, 98d67d207971bc0eb88640365bee9fbb
0,         34,         35,        1,    21822, c1f3062d2f7a24492553d79b13bac0e1
0,         35,         36,        1,    22109, 3b27b74d8ed82d7cb33a7d2744be2e4e
0,         36,         37,        1,    22252, 413c4a35caefc8f94060523c6b76a7b9
0,         37,         38,        1,    22460, ecffc0b2a0cb46c3505215c44f19b87d
0,         38,         39,        1,    22545, d49f16b96547eff8c6cfbf382b1228d6
0,         39,         40,        1,    22713, b065641ac7aa490f50f7264ce3e8fea1
0,         40,         41,        1,    22950, 35084d0861fd2b8a0c88b2fb7b7fbc08
0,         41,         42,        1,    23084, f2a0f4a8b4ac5c9d73f2166308282f55
0,         42,         43,        1,    23127, de2a87f059bb8e5cfc5f5c2e2d06a64b
0,         43,         44,        1,    23205, d2534c341ef0b26df2572bb60b36dc7a
0,         44,         45,        1,    23228, b5f1b1eeed16ffaf455b08c42bb475f5
0,         45,         46,        1,    23272, 0c6213d5d0a62b3cdb017c2b7d34c074
0,         46,         47,        1,    23311, 868feb7f39314a70ad26583958e9897e
0,         47,         48,        1,    23321, db666f1031a653c86d7a5ff7bb529cb7
0,         48,         49,        1,    23395, 7852331d9135810bb1f5baf58ad62518
